<?xml version="1.0" encoding="UTF-8"?>
<svg id="Layer_1" xmlns="http://www.w3.org/2000/svg" version="1.1" viewBox="0 0 141.93 113.83">
  <!-- Generator: Adobe Illustrator 29.6.1, SVG Export Plug-In . SVG Version: 2.1.1 Build 9)  -->
  <defs>
    <style>
      .st0 {
        fill: none;
        stroke: #000;
        stroke-width: 6px;
      }
    </style>
  </defs>
  <path class="st0" d="M2.97,3h136v102H2.97V3Z"/>
  <path d="M18.12,37.25c-2.57,0-4.88-.5-6.95-1.5-2.07-1-3.85-2.35-5.35-4.05-1.5-1.73-2.67-3.67-3.5-5.8-.8-2.17-1.2-4.38-1.2-6.65s.43-4.62,1.3-6.75c.87-2.17,2.07-4.08,3.6-5.75,1.53-1.7,3.33-3.03,5.4-4,2.1-1,4.37-1.5,6.8-1.5s4.83.52,6.9,1.55c2.1,1.03,3.88,2.42,5.35,4.15,1.5,1.73,2.65,3.67,3.45,5.8.83,2.13,1.25,4.32,1.25,6.55,0,2.37-.43,4.63-1.3,6.8-.83,2.13-2.02,4.05-3.55,5.75-1.53,1.67-3.35,2.98-5.45,3.95-2.07.97-4.32,1.45-6.75,1.45ZM6.82,19.25c0,1.67.27,3.28.8,4.85.53,1.57,1.28,2.97,2.25,4.2,1,1.2,2.2,2.15,3.6,2.85s2.97,1.05,4.7,1.05,3.4-.37,4.8-1.1c1.4-.73,2.57-1.72,3.5-2.95.97-1.27,1.7-2.67,2.2-4.2.5-1.57.75-3.13.75-4.7,0-1.67-.27-3.27-.8-4.8-.5-1.57-1.25-2.95-2.25-4.15-1-1.23-2.2-2.2-3.6-2.9-1.37-.7-2.9-1.05-4.6-1.05-1.8,0-3.4.37-4.8,1.1-1.4.73-2.58,1.72-3.55,2.95-.97,1.23-1.72,2.62-2.25,4.15-.5,1.53-.75,3.1-.75,4.7ZM86.12,1.5v35.5h-5.65v-15.65h-17.9v15.65h-5.6V1.5h5.6v14.85h17.9V1.5h5.65ZM124.88,37.25c-2.57,0-4.88-.5-6.95-1.5-2.07-1-3.85-2.35-5.35-4.05-1.5-1.73-2.67-3.67-3.5-5.8-.8-2.17-1.2-4.38-1.2-6.65s.43-4.62,1.3-6.75c.87-2.17,2.07-4.08,3.6-5.75,1.53-1.7,3.33-3.03,5.4-4,2.1-1,4.37-1.5,6.8-1.5s4.83.52,6.9,1.55c2.1,1.03,3.88,2.42,5.35,4.15,1.5,1.73,2.65,3.67,3.45,5.8.83,2.13,1.25,4.32,1.25,6.55,0,2.37-.43,4.63-1.3,6.8-.83,2.13-2.02,4.05-3.55,5.75-1.53,1.67-3.35,2.98-5.45,3.95-2.07.97-4.32,1.45-6.75,1.45ZM113.58,19.25c0,1.67.27,3.28.8,4.85.53,1.57,1.28,2.97,2.25,4.2,1,1.2,2.2,2.15,3.6,2.85s2.97,1.05,4.7,1.05,3.4-.37,4.8-1.1c1.4-.73,2.57-1.72,3.5-2.95.97-1.27,1.7-2.67,2.2-4.2.5-1.57.75-3.13.75-4.7,0-1.67-.27-3.27-.8-4.8-.5-1.57-1.25-2.95-2.25-4.15-1-1.23-2.2-2.2-3.6-2.9-1.37-.7-2.9-1.05-4.6-1.05-1.8,0-3.4.37-4.8,1.1-1.4.73-2.58,1.72-3.55,2.95-.97,1.23-1.72,2.62-2.25,4.15-.5,1.53-.75,3.1-.75,4.7h0ZM29.68,41.45h-11.8v30.55h-5.65v-30.55H.38v-4.95h29.3s0,4.95,0,4.95ZM64.29,67.05v4.95h-24.35v-35.5h23.9v4.95h-18.3v10.1h15.85v4.65h-15.85v10.85s18.75,0,18.75,0ZM75.62,72v-35.5h24.95v4.9h-19.35v9.95h10.4c3.93,0,6.88.93,8.85,2.8,1.97,1.83,2.95,4.27,2.95,7.3,0,2.03-.43,3.85-1.3,5.45-.83,1.57-2.1,2.82-3.8,3.75-1.67.9-3.78,1.35-6.35,1.35h-16.35ZM81.22,67.1h10c1.53,0,2.77-.28,3.7-.85.97-.57,1.65-1.28,2.05-2.15.43-.9.65-1.83.65-2.8s-.18-1.87-.55-2.7c-.37-.83-1.03-1.5-2-2-.93-.53-2.25-.8-3.95-.8h-9.9s0,11.3,0,11.3ZM138.53,67.05v4.95h-24.35v-35.5h23.9v4.95h-18.3v10.1h15.85v4.65h-15.85v10.85h18.75,0ZM29.56,71.5v35.5h-5.65v-15.65H6.01v15.65H.41v-35.5h5.6v14.85h17.9v-14.85h5.65ZM48.82,71.5h5.3l13.8,35.5h-5.9l-3.75-9.65h-13.7l-3.7,9.65h-5.95s13.9-35.5,13.9-35.5ZM57.17,93.2l-5.7-15.55-5.9,15.55h11.6ZM67.71,113.8v-11.75h1.7c.93,0,1.73-.37,2.4-1.1.7-.73,1.28-1.9,1.75-3.5.5-1.6.88-3.7,1.15-6.3.3-2.63.52-5.85.65-9.65l.25-10h22.85v30.55h4.5v11.75h-4.95v-6.8h-25.35v6.8s-4.95,0-4.95,0ZM76.51,102.05h16.3v-25.6h-12l-.15,5.8c-.1,3.83-.3,7.08-.6,9.75-.3,2.63-.73,4.77-1.3,6.4-.57,1.63-1.32,2.85-2.25,3.65ZM124.68,107.25c-2.57,0-4.88-.5-6.95-1.5s-3.85-2.35-5.35-4.05c-1.5-1.73-2.67-3.67-3.5-5.8-.8-2.17-1.2-4.38-1.2-6.65s.43-4.62,1.3-6.75c.87-2.17,2.07-4.08,3.6-5.75,1.53-1.7,3.33-3.03,5.4-4,2.1-1,4.37-1.5,6.8-1.5s4.83.52,6.9,1.55c2.1,1.03,3.88,2.42,5.35,4.15,1.5,1.73,2.65,3.67,3.45,5.8.83,2.13,1.25,4.32,1.25,6.55,0,2.37-.43,4.63-1.3,6.8-.83,2.13-2.02,4.05-3.55,5.75-1.53,1.67-3.35,2.98-5.45,3.95-2.07.97-4.32,1.45-6.75,1.45ZM113.38,89.25c0,1.67.27,3.28.8,4.85.53,1.57,1.28,2.97,2.25,4.2,1,1.2,2.2,2.15,3.6,2.85s2.97,1.05,4.7,1.05,3.4-.37,4.8-1.1c1.4-.73,2.57-1.72,3.5-2.95.97-1.27,1.7-2.67,2.2-4.2.5-1.57.75-3.13.75-4.7,0-1.67-.27-3.27-.8-4.8-.5-1.57-1.25-2.95-2.25-4.15-1-1.23-2.2-2.2-3.6-2.9-1.37-.7-2.9-1.05-4.6-1.05-1.8,0-3.4.37-4.8,1.1s-2.58,1.72-3.55,2.95-1.72,2.62-2.25,4.15c-.5,1.53-.75,3.1-.75,4.7h0Z"/>
</svg>